<?xml version="1.0" encoding="UTF-8" standalone="no"?>
<svg
   xmlns:dc="http://purl.org/dc/elements/1.1/"
   xmlns:cc="http://creativecommons.org/ns#"
   xmlns:rdf="http://www.w3.org/1999/02/22-rdf-syntax-ns#"
   xmlns:svg="http://www.w3.org/2000/svg"
   xmlns="http://www.w3.org/2000/svg"
   xmlns:xlink="http://www.w3.org/1999/xlink"
   xmlns:sodipodi="http://sodipodi.sourceforge.net/DTD/sodipodi-0.dtd"
   xmlns:inkscape="http://www.inkscape.org/namespaces/inkscape"
   inkscape:version="1.0rc1 (09960d6, 2020-04-09)"
   sodipodi:docname="crosshair-focus-svgrepo-com.svg"
   xml:space="preserve"
   style="enable-background:new 0 0 447.992 447.992;"
   viewBox="0 0 447.992 447.992"
   y="0px"
   x="0px"
   id="Layer_1"
   version="1.1"><metadata
   id="metadata906"><rdf:RDF><cc:Work
       rdf:about=""><dc:format>image/svg+xml</dc:format><dc:type
         rdf:resource="http://purl.org/dc/dcmitype/StillImage" /></cc:Work></rdf:RDF></metadata><defs
   id="defs904"><linearGradient
     id="linearGradient942"
     inkscape:collect="always"><stop
       id="stop938"
       offset="0"
       style="stop-color:#000000;stop-opacity:1;" /><stop
       id="stop940"
       offset="1"
       style="stop-color:#000000;stop-opacity:0;" /></linearGradient><linearGradient
     gradientUnits="userSpaceOnUse"
     y2="403.90183"
     x2="334.15177"
     y1="403.90183"
     x1="127.06244"
     id="linearGradient944"
     xlink:href="#linearGradient942"
     inkscape:collect="always" /></defs><sodipodi:namedview
   inkscape:current-layer="Layer_1"
   inkscape:window-maximized="1"
   inkscape:window-y="23"
   inkscape:window-x="0"
   inkscape:cy="223.996"
   inkscape:cx="223.996"
   inkscape:zoom="1.4442222"
   showgrid="false"
   id="namedview902"
   inkscape:window-height="855"
   inkscape:window-width="1440"
   inkscape:pageshadow="2"
   inkscape:pageopacity="0"
   guidetolerance="10"
   gridtolerance="10"
   objecttolerance="10"
   borderopacity="1"
   bordercolor="#666666"
   pagecolor="#ffffff" />
<g
   id="g869"
   color-interpolation="sRGB"
   color-rendering="auto"
   image-rendering="auto"
   shape-rendering="auto"
   transform="matrix(0.80216294,0,0,0.80216294,45.699707,-804.64651)">
	<path
   inkscape:connector-curvature="0"
   id="path833"
   d="m 223.937,1068.314 c -97.108,0 -175.984,78.877 -175.984,175.984 0,97.107 78.877,175.984 175.984,175.984 97.107,0 176.102,-78.877 176.102,-175.984 0,-97.107 -78.994,-175.984 -176.102,-175.984 z"
   style="fill:#5a3392" />
	<path
   inkscape:connector-curvature="0"
   id="path835"
   d="m 223.937,1084.257 c 88.46,0 160.039,71.58 160.039,160.039 0,88.461 -71.579,160.039 -160.039,160.039 -88.461,0 -159.922,-71.578 -159.922,-160.039 0.001,-88.461 71.461,-160.039 159.922,-160.039 z"
   style="fill:#29a3ec" />
	<path
   inkscape:connector-curvature="0"
   id="path837"
   d="m 223.942,1096.283 c 81.814,0 148.014,66.199 148.014,148.014 0,81.813 -66.2,148.014 -148.014,148.014 -81.814,0 -147.905,-66.201 -147.905,-148.014 0,-81.815 66.091,-148.014 147.905,-148.014 z"
   style="fill:#3cdef6" />
	<path
   inkscape:connector-curvature="0"
   id="path839"
   d="m 223.937,1132.328 c 61.95,0 112.086,50.02 112.086,111.969 0,61.951 -50.136,111.969 -112.086,111.969 -61.951,0 -111.969,-50.018 -111.969,-111.969 10e-4,-61.952 50.018,-111.969 111.969,-111.969 z"
   style="fill:#ffffff" />
	<path
   inkscape:connector-curvature="0"
   id="path841"
   d="m 223.943,1144.298 c 55.299,0 100.052,44.67 100.052,100 0,55.328 -44.753,100 -100.052,100 -55.3,0 -99.948,-44.672 -99.948,-100 10e-4,-55.33 44.649,-100 99.948,-100 z"
   style="fill:#ebfeff" />
	<path
   inkscape:connector-curvature="0"
   id="path843"
   d="m 223.937,1212.291 c -17.579,0 -32.008,14.43 -32.008,32.008 -0.001,17.58 14.429,32.008 32.008,32.008 17.578,0 32.008,-14.43 32.007,-32.008 0.001,-17.579 -14.429,-32.008 -32.007,-32.008 z"
   style="fill:#5a3392" />
	<path
   inkscape:connector-curvature="0"
   id="path845"
   d="m 223.937,1228.353 c 8.931,0 16.063,7.014 16.063,15.945 0,8.931 -7.132,16.063 -16.063,16.063 -8.932,0 -15.945,-7.131 -15.945,-16.063 0.001,-8.931 7.014,-15.945 15.945,-15.945 z"
   style="fill:#ee746c" />
	<g
   id="g855">
		<path
   inkscape:connector-curvature="0"
   id="path847"
   d="m 216.024,1020.361 v 143.977 h 15.945 v -143.976 z"
   style="fill:#5a3392" />
		<path
   inkscape:connector-curvature="0"
   id="path849"
   d="m 216.024,1324.257 v 144.094 h 15.945 v -144.094 z"
   style="fill:#5a3392" />
		<path
   inkscape:connector-curvature="0"
   id="path851"
   d="m 304.016,1236.265 v 16.063 h 143.976 v -16.063 z"
   style="fill:#5a3392" />
		<path
   inkscape:connector-curvature="0"
   id="path853"
   d="m 0,1236.265 v 16.063 h 143.976 v -16.063 z"
   style="fill:#5a3392" />
	</g>
	<path
   inkscape:connector-curvature="0"
   id="path857"
   d="m 223.959,1234.357 c 5.582,0 10.037,4.385 10.037,9.961 0,5.582 -4.451,10.039 -10.037,10.039 -5.582,0 -9.963,-4.451 -9.963,-10.039 0,-5.574 4.384,-9.961 9.963,-9.961 z"
   style="fill:#fb9761" />
	<g
   id="g867">
		<path
   inkscape:connector-curvature="0"
   id="path859"
   d="m 251.402,1119.562 c -4.409,0.23 -7.796,3.994 -7.564,8.402 0.188,3.574 2.729,6.59 6.221,7.379 41.006,9.807 72.99,41.787 82.844,82.783 1.021,4.301 5.336,6.959 9.636,5.939 4.301,-1.021 6.96,-5.336 5.939,-9.637 -0.004,-0.018 -0.008,-0.035 -0.013,-0.053 -11.252,-46.813 -47.862,-83.365 -94.687,-94.563 -0.774,-0.203 -1.575,-0.289 -2.375,-0.256 z"
   style="fill:#5a3392" />
		<path
   inkscape:connector-curvature="0"
   id="path861"
   d="m 196.246,1119.593 c -0.717,-0.01 -1.431,0.076 -2.125,0.256 -46.722,11.215 -83.244,47.67 -94.531,94.375 -1.141,4.266 1.391,8.648 5.657,9.789 4.265,1.141 8.648,-1.391 9.789,-5.656 0.031,-0.117 0.06,-0.234 0.085,-0.352 9.885,-40.898 41.803,-72.803 82.719,-82.623 4.302,-0.994 6.984,-5.287 5.99,-9.588 -0.82,-3.553 -3.94,-6.1 -7.584,-6.193 z"
   style="fill:#5a3392" />
		<path
   inkscape:connector-curvature="0"
   id="path863"
   d="m 340.84,1264.343 c -3.796,-0.082 -7.126,2.516 -7.969,6.219 -9.873,40.908 -41.8,72.826 -82.719,82.656 -4.328,0.873 -7.129,5.09 -6.256,9.418 0.873,4.328 5.09,7.129 9.418,6.256 0.198,-0.041 0.394,-0.088 0.588,-0.143 46.726,-11.225 83.257,-47.693 94.531,-94.406 1.108,-4.273 -1.458,-8.637 -5.732,-9.746 -0.608,-0.156 -1.233,-0.242 -1.861,-0.254 z"
   style="fill:#5a3392" />
		<path
   inkscape:connector-curvature="0"
   id="path865"
   d="m 106.84,1264.093 c -4.41,0.221 -7.805,3.975 -7.584,8.385 0.027,0.535 0.107,1.066 0.24,1.584 11.192,46.814 47.734,83.422 94.531,94.686 4.297,1.035 8.621,-1.609 9.656,-5.906 1.035,-4.297 -1.609,-8.621 -5.906,-9.656 v 0 c -40.982,-9.865 -72.918,-41.846 -82.719,-82.846 -0.846,-3.811 -4.321,-6.453 -8.219,-6.25 v 0 z"
   style="fill:#5a3392" />
	</g>
</g>
<g
   transform="matrix(0.63214673,0,0,0.63214673,82.39766,82.39766)"
   id="g871">
</g>
<g
   transform="matrix(0.63214673,0,0,0.63214673,82.39766,82.39766)"
   id="g873">
</g>
<g
   transform="matrix(0.63214673,0,0,0.63214673,82.39766,82.39766)"
   id="g875">
</g>
<g
   transform="matrix(0.63214673,0,0,0.63214673,82.39766,82.39766)"
   id="g877">
</g>
<g
   transform="matrix(0.63214673,0,0,0.63214673,82.39766,82.39766)"
   id="g879">
</g>
<g
   transform="matrix(0.63214673,0,0,0.63214673,82.39766,82.39766)"
   id="g881">
</g>
<g
   transform="matrix(0.63214673,0,0,0.63214673,82.39766,82.39766)"
   id="g883">
</g>
<g
   transform="matrix(0.63214673,0,0,0.63214673,82.39766,82.39766)"
   id="g885">
</g>
<g
   transform="matrix(0.63214673,0,0,0.63214673,82.39766,82.39766)"
   id="g887">
</g>
<g
   transform="matrix(0.63214673,0,0,0.63214673,82.39766,82.39766)"
   id="g889">
</g>
<g
   transform="matrix(0.63214673,0,0,0.63214673,82.39766,82.39766)"
   id="g891">
</g>
<g
   transform="matrix(0.63214673,0,0,0.63214673,82.39766,82.39766)"
   id="g893">
</g>
<g
   transform="matrix(0.63214673,0,0,0.63214673,82.39766,82.39766)"
   id="g895">
</g>
<g
   transform="matrix(0.63214673,0,0,0.63214673,82.39766,82.39766)"
   id="g897">
</g>
<g
   transform="matrix(0.63214673,0,0,0.63214673,82.39766,82.39766)"
   id="g899">
</g>
<text
   id="text910"
   y="418.2182"
   x="230.9489"
   style="font-weight:bold;font-size:39.99989999999999668px;line-height:1.25;font-family:Hyperspace;-inkscape-font-specification:'Hyperspace, Bold';fill-opacity:1;fill:#fb9761;stroke:#ee6c6c;stroke-opacity:1;"
   xml:space="preserve"><tspan
     style="font-style:normal;font-variant:normal;font-weight:bold;font-stretch:normal;font-family:'Arial Black';-inkscape-font-specification:'Arial Black, Bold';text-align:center;text-anchor:middle;fill-opacity:1;fill:#fb9761;stroke:#ee6c6c;stroke-opacity:1;"
     y="418.2182"
     x="230.9489"
     id="tspan908"
     sodipodi:role="line">zen.focus</tspan></text></svg>
